<svg id="Layer_1" data-name="Layer 1" xmlns="http://www.w3.org/2000/svg" viewBox="0 0 1000 1000"><defs><style>.cls-1{fill:currentColor;}</style></defs><polygon class="cls-1" points="672.96 438.23 502.5 438.23 587.49 205.77 327.81 561.77 498.28 561.77 413.29 794.23 672.96 438.23"/><path class="cls-1" d="M683.15,430.94q2.91-22.51,13.93-39,15-22.33,39.7-22.34a38.23,38.23,0,0,1,24.7,8.52A73,73,0,0,1,779.12,399q7.07,12.36,13.82,24.7a80.77,80.77,0,0,0,17.35,21.76,38.46,38.46,0,0,0,24.7,10q18.82.6,27.65-7.94t8.82-21.46q0-34.69-35.58-58.82t-86.16-23.52q-61.76.58-105,40.58a129.42,129.42,0,0,0-32.49,46.64Z"/><path class="cls-1" d="M870,532.8a10.3,10.3,0,0,0-8.82-2.35,13.42,13.42,0,0,0-8.53,5.58q-24.12,41.18-70.58,41.17-45.28,0-72.63-35.29t-27.35-94.09c0-3.55.18-7,.43-10.32L609.17,538q10.53,31,35.57,56.23Q688,637.79,753.25,637.78q54.09,0,85.57-28.23t34.4-67.64Q873.81,536,870,532.8Z"/><path class="cls-1" d="M424.3,618.37a9.54,9.54,0,0,0-4.12-8.23,42.58,42.58,0,0,0-9.41-5q-5.29-2.05-10.29-10.3t-6.76-21.75l-.48-4H313.49l68.57-94-1.28-10.77q-6.48-55.86-42.93-88.21t-93.51-32.35q-47.64,0-80.28,18.23t-32.64,48.81q0,14.72,9.7,23.82t25.58,9.12q14.7,0,24.12-11.76a74.59,74.59,0,0,0,13.52-25.88,69.8,69.8,0,0,1,14.12-25.88q10-11.76,25.88-11.76,25.28,0,35.87,22.94t16.47,78.8l.59,7.06Q272,459.58,233.16,459.58q-45.87,0-76.45,23.52t-30,65.87q0,42.94,30.58,65.87t80,22.94q55.28,0,78.22-34.11,2.34,18.23,14.41,25t37.93,6.76Q424.3,635.42,424.3,618.37Zm-130-22.64q-11.77,16.17-31.17,16.17-21.78,0-35.59-22.35t-13.82-54.1q0-22.35,12.06-35.88T256.69,486q18.81,0,31.46,13.53t15,38.82L304.91,559A55.36,55.36,0,0,1,294.33,595.73Z"/></svg>