<svg width="100" height="100" viewBox="0 0 100 100" fill="none" xmlns="http://www.w3.org/2000/svg">
<path d="M50 1.15899L60.6467 23.4232L60.8406 23.8285L61.2643 23.679L84.5358 15.4642L76.321 38.7357L76.1715 39.1594L76.5768 39.3533L98.841 50L76.5768 60.6467L76.1715 60.8406L76.321 61.2643L84.5358 84.5358L61.2643 76.321L60.8406 76.1715L60.6467 76.5768L50 98.841L39.3533 76.5768L39.1594 76.1715L38.7357 76.321L15.4642 84.5358L23.679 61.2643L23.8285 60.8406L23.4232 60.6467L1.15899 50L23.4232 39.3533L23.8285 39.1594L23.679 38.7357L15.4642 15.4642L38.7357 23.679L39.1594 23.8285L39.3533 23.4232L50 1.15899Z" fill="#FAF7F3" stroke="black"/>
</svg>
